# xmcd
#
# Track frame offsets: 
#        150
#        18373
#        35496
#        54511
#        75002
#        96910
#        111733
#        126267
#        142747
#        161315
#        178401
#        199769
#
# Disc length: 2902 seconds
#
# Revision: 1
# Processed by: cddbd v1.5.2PL0 Copyright (c) Steve Scherf et al.
# Submitted via: ExactAudioCopy v0.99pb4
#
DISCID=9a0b540c
DTITLE=Tom Rigney and Flambeau - Happy To Be Here
DYEAR=2003
DGENRE=Country
TTITLE0=Maman Rosin
TTITLE1=Co Fa
TTITLE2=Boppin' the Blues
TTITLE3=Jambalaya
TTITLE4=Milk Cow Blues
TTITLE5=Party Gras
TTITLE6=Annie's Reel
TTITLE7=Firefly Waltz
TTITLE8=Do the Zydeco
TTITLE9=Florida Blues
TTITLE10=Les Flammes d'Eters
TTITLE11=Orange Blossom Special
EXTD=
EXTT0=Maman Rosin
EXTT1=
EXTT2=
EXTT3=
EXTT4=
EXTT5=
EXTT6=
EXTT7=
EXTT8=
EXTT9=
EXTT10=
EXTT11=
PLAYORDER=
